<svg id="グループ_801" data-name="グループ 801" xmlns="http://www.w3.org/2000/svg" xmlns:xlink="http://www.w3.org/1999/xlink" width="220.694" height="37.313" viewBox="0 0 220.694 37.313">
  <defs>
    <linearGradient id="linear-gradient" y1="0.5" x2="1" y2="0.5" gradientUnits="objectBoundingBox">
      <stop offset="0" stop-color="#50bef1"/>
      <stop offset="0.084" stop-color="#50bef1"/>
      <stop offset="0.82" stop-color="#00388d"/>
      <stop offset="1" stop-color="#00388d"/>
    </linearGradient>
  </defs>
  <path id="パス_2052" data-name="パス 2052" d="M47.739,21.8a17.385,17.385,0,0,1-2.421,2.166A9.329,9.329,0,0,1,42.9,25.186a9.154,9.154,0,0,1-2.906.442q-4.245,0-6.408-2.543t-2.162-7.512a12.633,12.633,0,0,1,1.1-5.419,8.313,8.313,0,0,1,3.142-3.622,9.488,9.488,0,0,1,8.243-.622,5.985,5.985,0,0,1,2.337,1.8A8.393,8.393,0,0,1,47.605,10.6a19.046,19.046,0,0,1,.546,4.545H35.17v.373a13.217,13.217,0,0,0,.546,4.088,5.154,5.154,0,0,0,1.795,2.6,5.226,5.226,0,0,0,3.243.936,7.078,7.078,0,0,0,3.038-.628,8.947,8.947,0,0,0,2.691-2.052Zm-3.46-8.365a15.617,15.617,0,0,0-.558-3.637,4.544,4.544,0,0,0-1.3-2.162,3.329,3.329,0,0,0-2.267-.752,4.012,4.012,0,0,0-3.388,1.7,9.153,9.153,0,0,0-1.5,4.853Z" transform="translate(27.43 3.154)" fill="#1a1311"/>
  <line id="線_1" data-name="線 1" x2="9.558" transform="translate(83.739 17.604)" fill="none" stroke="#1a1311" stroke-miterlimit="10" stroke-width="1.677"/>
  <path id="パス_2053" data-name="パス 2053" d="M56.178,22.876a8.605,8.605,0,0,0,1.113,2.866A4.272,4.272,0,0,0,59.1,27.3a7,7,0,0,0,2.864.5,5.089,5.089,0,0,0,3.7-1.254,4.906,4.906,0,0,0,1.289-3.673,5.686,5.686,0,0,0-.537-2.592A5.924,5.924,0,0,0,64.667,18.3a23.907,23.907,0,0,0-3.706-2.16A20.343,20.343,0,0,1,57.147,13.8a7.9,7.9,0,0,1-2.092-2.482A6.3,6.3,0,0,1,54.366,8.4a7.321,7.321,0,0,1,1.079-4.01A7.026,7.026,0,0,1,58.62,1.757,11.727,11.727,0,0,1,63.409.834a24.366,24.366,0,0,1,6.8.906V7.3H68.169a8.67,8.67,0,0,0-1.193-2.821,3.954,3.954,0,0,0-1.69-1.412,6.639,6.639,0,0,0-2.514-.4,5.667,5.667,0,0,0-2.4.491,3.838,3.838,0,0,0-1.677,1.494,4.422,4.422,0,0,0-.62,2.379A5.271,5.271,0,0,0,58.6,9.505a5.835,5.835,0,0,0,1.635,1.877,19.731,19.731,0,0,0,3.3,1.938,24.839,24.839,0,0,1,4.09,2.453,8.555,8.555,0,0,1,2.265,2.587,6.811,6.811,0,0,1,.815,3.386,8.809,8.809,0,0,1-.679,3.658,6.3,6.3,0,0,1-1.886,2.43,7.636,7.636,0,0,1-2.883,1.359,14.974,14.974,0,0,1-3.679.423,30.281,30.281,0,0,1-7.457-1.091V22.876Z" transform="translate(47.932 -0.834)" fill="#1a1311"/>
  <path id="パス_2054" data-name="パス 2054" d="M72.99,24.67v4.347a15.509,15.509,0,0,0,.093,2,2.674,2.674,0,0,0,.327,1.039,1.851,1.851,0,0,0,.681.63,5.514,5.514,0,0,0,1.431.451v1.011H67.117V33.138a7.9,7.9,0,0,0,1.207-.424,1.564,1.564,0,0,0,.71-.638,2.928,2.928,0,0,0,.329-1.14,17.71,17.71,0,0,0,.082-1.918V11.338c0-.988-.011-1.69-.04-2.111a4.8,4.8,0,0,0-.164-1.043,1.773,1.773,0,0,0-.362-.678,1.925,1.925,0,0,0-.638-.453,6.436,6.436,0,0,0-1.328-.371V5.592l4.84-.185h1.256l-.268,3.355.312.082a23.549,23.549,0,0,1,2.019-1.882,8.7,8.7,0,0,1,1.536-.98,6.876,6.876,0,0,1,1.521-.558,7.167,7.167,0,0,1,1.557-.164A6.04,6.04,0,0,1,84.91,7.808q1.821,2.541,1.823,7.447a14.134,14.134,0,0,1-1.03,5.717,7.4,7.4,0,0,1-3,3.481,9.054,9.054,0,0,1-4.688,1.163,13.63,13.63,0,0,1-2.765-.257,12,12,0,0,1-2.265-.689m0-6.8a14.463,14.463,0,0,0,.246,3.049,3.709,3.709,0,0,0,.876,1.741,4.013,4.013,0,0,0,1.483,1,6.477,6.477,0,0,0,2.259.327A4.1,4.1,0,0,0,81.6,21.922a11.953,11.953,0,0,0,1.26-6.111q0-8.079-4.72-8.077a5.038,5.038,0,0,0-1.989.36,5.552,5.552,0,0,0-1.658,1.169,5.184,5.184,0,0,0-1.165,1.553,3.886,3.886,0,0,0-.339,1.616Z" transform="translate(59.488 3.165)" fill="#1a1311"/>
  <path id="パス_2055" data-name="パス 2055" d="M81.857,27.956A6.738,6.738,0,0,0,83,27.524a1.693,1.693,0,0,0,.575-.518A2.53,2.53,0,0,0,83.947,26a12.083,12.083,0,0,0,.133-2.122V14.893c0-.879-.011-1.587-.042-2.122a3.1,3.1,0,0,0-.287-1.287A1.56,1.56,0,0,0,83,10.76a6.15,6.15,0,0,0-1.433-.4V9.269l4.8-.185h1.254V23.814a12.616,12.616,0,0,0,.162,2.461,1.825,1.825,0,0,0,.63,1.052,4.305,4.305,0,0,0,1.517.628v1.009H81.857ZM87.75,5.187H83.957v-4H87.75Z" transform="translate(72.725 -0.512)" fill="#1a1311"/>
  <path id="パス_2056" data-name="パス 2056" d="M95.794,9.018l.3.067a15.284,15.284,0,0,1,2.1-2.175,7.512,7.512,0,0,1,2.094-1.226,7.06,7.06,0,0,1,2.543-.434,16.93,16.93,0,0,1,2.166.126v4.739h-2.328a4.776,4.776,0,0,0-1.051-1.62,2.186,2.186,0,0,0-1.528-.5,2.868,2.868,0,0,0-1.471.43A5.443,5.443,0,0,0,97.2,9.681a5.269,5.269,0,0,0-.938,1.545A5.143,5.143,0,0,0,96,12.937v7.211a9.881,9.881,0,0,0,.226,2.585,1.8,1.8,0,0,0,.75,1.041,4.541,4.541,0,0,0,1.576.514V25.3h-8.3V24.288a6.785,6.785,0,0,0,1.129-.432,1.8,1.8,0,0,0,.584-.52,2.425,2.425,0,0,0,.371-1.007,13.187,13.187,0,0,0,.122-2.122V11.226c0-.881-.01-1.587-.04-2.124a3.164,3.164,0,0,0-.289-1.285,1.576,1.576,0,0,0-.748-.727,6.255,6.255,0,0,0-1.435-.4V5.619l4.821-.2h1.26Z" transform="translate(80.292 3.155)" fill="#1a1311"/>
  <path id="パス_2057" data-name="パス 2057" d="M101.623,27.956a6.641,6.641,0,0,0,1.142-.432,1.647,1.647,0,0,0,.577-.518A2.588,2.588,0,0,0,103.713,26a12.224,12.224,0,0,0,.135-2.122V14.893c0-.879-.015-1.587-.04-2.122a3.289,3.289,0,0,0-.289-1.287,1.6,1.6,0,0,0-.754-.725,6.178,6.178,0,0,0-1.433-.4V9.269l4.8-.185h1.256V23.814a12.469,12.469,0,0,0,.162,2.461,1.808,1.808,0,0,0,.632,1.052,4.233,4.233,0,0,0,1.513.628v1.009h-8.076Zm5.894-22.769h-3.793v-4h3.793Z" transform="translate(90.577 -0.512)" fill="#1a1311"/>
  <path id="パス_2058" data-name="パス 2058" d="M109.21,8.878a4.232,4.232,0,0,0,1.669-.577,2.921,2.921,0,0,0,1-1.06,5.892,5.892,0,0,0,.567-1.627c.135-.653.278-1.606.432-2.853h2.927V7.85h6.654V9.927h-6.654V19.1a23.4,23.4,0,0,0,.166,3.18,4.374,4.374,0,0,0,.617,1.859,2.76,2.76,0,0,0,1.033.955,3.3,3.3,0,0,0,1.483.285,3.558,3.558,0,0,0,1.542-.339,5.77,5.77,0,0,0,1.426-.978L123,25.178a11.107,11.107,0,0,1-2.775,2.059,6.092,6.092,0,0,1-2.71.638,4.819,4.819,0,0,1-3.953-1.574,7.682,7.682,0,0,1-1.3-4.933V9.927H109.21Z" transform="translate(97.693 0.907)" fill="#1a1311"/>
  <g id="グループ_121" data-name="グループ 121" transform="translate(0 0.746)">
    <path id="SVGID" d="M16.183,18.881c4.762.114,16.469.619,9.655,6.791h0C20.977,30.07,7.919,34.427,5.262,33.5h0c-3.97-1.367,7.959-8.557,10.066-6.935h0c1.277.986-4.157,4.587-7.919,4.909h0c4.077,1.681,26.566-8.909,14.016-9.533h0C8.172,21.279-8.767,33.787,6.6,35.272h0C18.621,36.44,59.931,17.851,41.991,12.838h0c-7.423-2.075-18.707-1.121-20.814-3.485h0C19.447,5.992,29.6,2.374,33.56,1.226h0C1.113,10.232-11.856,18.239,16.183,18.881" transform="translate(-0.5 -1.226)" fill="url(#linear-gradient)"/>
  </g>
</svg>
